<svg xmlns="http://www.w3.org/2000/svg" xmlns:xlink="http://www.w3.org/1999/xlink" version="1.1"
    x="0px" y="0px" viewBox="0 0 32 32" style="enable-background:new 0 0 32 32;"
    xml:space="preserve"><g><path d="M2.7800293,30h26.4399414L24.1500244,8.6900024h-4.5c0.4299927-0.6799927,0.6900024-1.4800415,0.6900024-2.3500366   C20.3400269,3.9500122,18.3900146,2,16,2s-4.3400269,1.9500122-4.3400269,4.3399658   c0,0.8699951,0.2600098,1.6700439,0.6900024,2.3500366h-4.5L2.7800293,30z M16.0100098,5.3399658h0.0100098   c0.5499878,0,1,0.4500122,1,1c0,0.5599976-0.4500122,1-1,1c-0.5500488,0-1.0100098-0.4400024-1.0100098-1   C15.0100098,5.789978,15.460022,5.3399658,16.0100098,5.3399658z"/></g></svg>