<svg xmlns="http://www.w3.org/2000/svg" version="1.1" viewBox="-5.0 -10.0 110.0 135.0">
 <path d="m19.531 37.031-13 43.938c-0.71875 3.0625-0.03125 6.25 1.9375 8.7188 1.9375 2.4688 4.875 3.875 8.0312 3.875h67c3.1562 0 6.0938-1.4062 8.0312-3.875 1.9688-2.4688 2.6562-5.6562 1.9062-8.875l-12.938-43.625c-1.0938-4.625-5.1875-7.875-9.9688-7.875h-4.2188c0.625-1.75 0.96875-3.6562 0.96875-5.625 0-9.5-7.75-17.25-17.281-17.25s-17.281 7.75-17.281 17.25c0 1.9688 0.34375 3.875 0.96875 5.625h-4.2188c-4.7812 0-8.875 3.25-9.9375 7.7188zm30.469-24.344c6.0938 0 11.031 4.9375 11.031 11 0 2.0625-0.59375 3.9688-1.5938 5.625h-18.875c-1-1.6562-1.5938-3.5625-1.5938-5.625 0-6.0625 4.9375-11 11.031-11z"/>
<text x="0.0" y="117.5" font-size="5.0" font-weight="bold" font-family="Arbeit Regular, Helvetica, Arial-Unicode, Arial, Sans-serif" fill="#000000">Created by Riyan Resdian</text><text x="0.0" y="122.5" font-size="5.0" font-weight="bold" font-family="Arbeit Regular, Helvetica, Arial-Unicode, Arial, Sans-serif" fill="#000000">from Noun Project</text></svg>